# xmcd
#
# Track frame offsets:
#	150
#	15131
#	32765
#	47624
#	57654
#	70823
#	90885
#	100558
#	113736
#	125608
#	135221
#	148537
#	161140
#	181223
#	196618
#	210498
#	226681
#	259307
#
# Disc length: 4126 seconds
#
# Revision: 0
# Processed by: cddbd v1.5.1PL2 Copyright (c) Steve Scherf et al.
# Submitted via: audiograbber 1.83.01
#
DISCID=df101c12
DTITLE=Various Artist - Celebration of Life Vol 2
DYEAR=2006
DGENRE=Country
TTITLE0=Blue Highway - Blue Highway
TTITLE1=Various Artist - Just When I Needed You
TTITLE2=Randy Kohrs and The Lites - Prisoner's Tears
TTITLE3=Various Artist - Louisville Breakdown
TTITLE4=David Parmley and Continental Divide - There Will Always Be A Rocking Cha
TTITLE4=ir
TTITLE5=Karl Shiflett And Big Country Show - Streets Of Chicago
TTITLE6=Kenny And Amanda Smith - I Know Where Love Lives
TTITLE7=Wildfire - Victim Of Life's Circumstances
TTITLE8=Doyle Lawson and Quicksilver - John The Revelator
TTITLE9=Lost And Found - Country Boy
TTITLE10=The Grascals - White Lightning
TTITLE11=Alecia Nugent - Ready For The Times To Get Better 
TTITLE12=Larry Cordle and Friends - Mama Don't Forget To Pray For Me
TTITLE13=Carl Jackson and Friends - Blue Ridge Cabin Home
TTITLE14=Don Rigsby and Midnight Call - Empty Old Mail Box
TTITLE15=Bradley Walker and Friends - Sugar Coated Love
TTITLE16=Dan Tyminski and Friends - Freeborn Man
TTITLE17=Tony Rice - Shenandoah 
EXTD=
EXTT0=
EXTT1=
EXTT2=
EXTT3=
EXTT4=
EXTT5=
EXTT6=
EXTT7=
EXTT8=
EXTT9=
EXTT10=
EXTT11=
EXTT12=
EXTT13=
EXTT14=
EXTT15=
EXTT16=
EXTT17=
PLAYORDER=
